<svg xmlns="http://www.w3.org/2000/svg" xmlns:xlink="http://www.w3.org/1999/xlink" width="947" height="770" preserveAspectRatio="xMidYMid meet" viewBox="274.618 117.068 203.5 165.5"><rect id="svgEditorBackground" width="1000" height="770" x="0" y="0" style="fill:none;stroke:none"/><defs id="svgEditorDefs"><polygon id="svgEditorShapeDefs" style="fill:khaki;stroke:#000;vector-effect:non-scaling-stroke;stroke-width:1px"/></defs><path d="M8 88h8v-48h-8c-4.419 0-8 3.581-8 8v32c0 4.419 3.581 8 8 8z" transform="matrix(0.875 0 0 0.875 323 152)"/><path d="M40 104v-80h-8c-4.419 0-8 3.581-8 8v64c0 4.419 3.581 8 8 8h8z" transform="matrix(0.875 0 0 0.875 323 152)"/><path d="M120 40h-8v48h8c4.419 0 8-3.581 8-8v-32c0-4.419-3.581-8-8-8z" transform="matrix(0.875 0 0 0.875 323 152)"/><path d="M104,96v-64c0,-4.4190000000000005,-3.581000000000003,-8,-8,-8h-8v80h8c4.418999999999997,0,8,-3.581000000000003,8,-8Z" transform="matrix(0.875 0 0 0.875 323 152)"/><path d="M48 56h32v16h-32v-16z" transform="matrix(0.875 0 0 0.875 323 152)"/><path style="fill:khaki;stroke:#000;vector-effect:non-scaling-stroke;stroke-width:1px" id="e2_shape" d="M12,112c1.8640000000000008,0,3.622,-0.4369999999999976,5.195,-1.1949999999999932c-0.7579999999999991,1.5729999999999933,-1.1950000000000003,3.3319999999999936,-1.1950000000000003,5.194999999999993c0,6.626999999999995,5.372,12,12,12s12,-5.373000000000005,12,-12c0,-5.415999999999997,-3.5889999999999986,-9.989000000000004,-8.517,-11.483000000000004l12.026,-12.025999999999996c9.240000000000002,5.643000000000001,21.46900000000001,4.472999999999999,29.462000000000003,-3.5220000000000056c8,-8,23.313999999999993,-0.686000000000007,37.983721065242634,-28.122658242049255c20.95127893475737,-8.184341757950754,20.95127893475737,-33.510341757950755,5.330278934757359,-49.132341757950755s-40.94800000000001,-15.620000000000001,-53.81053761901124,4.909463676535324c-22.75846238098876,15.090536323464676,-15.44446238098876,30.404536323464676,-23.44446238098876,38.404536323464676c-7.995000000000001,7.994,-9.165,20.222,-3.5219999999999985,29.461999999999996l-12.026,12.025999999999996c-1.4920000000000009,-4.927000000000007,-6.065999999999999,-8.516999999999996,-11.482,-8.516999999999996c-6.628,0,-12,5.373000000000005,-12,12s5.372,12,12,12Z" transform="matrix(0.395635 -0.44689 0.388771 0.454781 328.298 180.996)"/><text style="fill:#000;font-family:Verdana;font-size:24.7px;font-weight:700;font-style:normal" id="e4_texte" x="301" y="270">MANG GYM</text><circle id="e6_circle" cx="368" cy="154" r="10" style="fill:khaki;stroke:#000;stroke-width:1px"/><circle id="e7_circle" cx="388" cy="154" r="10" style="fill:khaki;stroke:#000;stroke-width:1px"/><path style="fill:none;stroke:#000;stroke-width:1px" id="e8_circleArc" d="M368,175a10.7309394381,10.7309394381,0,0,0,21,0"/><circle id="e9_circle" cx="367.618" cy="154.068" r="5" style="fill:khaki;stroke:#000;stroke-width:1px"/><circle id="e10_circle" cx="389.756" cy="154.038" r="5.523" transform="matrix(0.94 0 0 0.98063 21.9971 3.26338)" style="fill:khaki;stroke:#000;stroke-width:1px"/></svg>